# xmcd CD database file
#
# Track frame offsets:
#	150
#	11472
#	22420
#	36291
#	51822
#	65740
#	75372
#	86268
#	103504
#	122587
#	138415
#	160384
#	171864
#
# Disc length: 2425 seconds
#
# Revision: 0
# Processed by: cddbd v1.5.2PL0 Copyright (c) Steve Scherf et al.
# Submitted via: CDex 1.70beta3
#
DISCID=a409770d
DTITLE=The Delta Rhythm Boys - Delta Rhythm Boys In Sweden 
DYEAR=1955
DGENRE=Jazz
TTITLE0=Perdido
TTITLE1=Early Autumn
TTITLE2=It Had To Be You
TTITLE3=All Alone
TTITLE4=Lullaby Of Birdland
TTITLE5=If I Knew Then
TTITLE6=Indiana
TTITLE7=Midnight Sun
TTITLE8=Whiffenpoof Song
TTITLE9=Shadrak
TTITLE10=Old Man River
TTITLE11=Chloe
TTITLE12=Joshua Fit The Battle Of Jericho
EXTD=YEAR: 1955
EXTT0=
EXTT1=
EXTT2=
EXTT3=
EXTT4=
EXTT5=
EXTT6=
EXTT7=
EXTT8=
EXTT9=
EXTT10=
EXTT11=
EXTT12=
PLAYORDER=
